<svg id="Capa_1" enable-background="new 0 0 512 512" height="512" viewBox="0 0 512 512" width="512" xmlns="http://www.w3.org/2000/svg"><g><path d="m467.858 27.391h-351.358c-4.142 0-7.5 3.358-7.5 7.5s3.358 7.5 7.5 7.5h351.358c16.069 0 29.142 13.073 29.142 29.143v113.912c0 16.069-13.073 29.142-29.142 29.142h-145.73v-26.269c.045-14.227-11.879-26.029-26.03-26.029-14.338.044-26.041 11.746-26.085 26.108l-.002 26.19h-225.869c-16.069 0-29.142-13.073-29.142-29.142v-113.912c0-16.069 13.073-29.143 29.142-29.143h40.358c4.142 0 7.5-3.358 7.5-7.5s-3.358-7.5-7.5-7.5h-40.358c-24.34 0-44.142 19.802-44.142 44.143v113.912c0 24.34 19.802 44.142 44.142 44.142h225.868l-.01 109.228c0 3.661-4.575 3.459-5.628 1.217l-23.325-49.656c-5.469-11.644-18.447-17.639-30.858-14.256-15.456 4.212-23.826 22.213-16.946 36.756l54.014 115.342c16.041 34.254 50.846 56.388 88.67 56.388 23.246 0 45.763-8.319 63.403-23.425 3.146-2.694 3.513-7.429.818-10.575-2.693-3.146-7.428-3.512-10.575-.818-14.924 12.78-33.976 19.819-53.646 19.819-32.03 0-61.502-18.743-75.086-47.75l-54.026-115.368c-2.995-6.332.561-14.055 7.319-15.897 5.366-1.462 10.973 1.129 13.336 6.161l23.325 49.656c7.948 16.921 34.206 11.125 34.206-7.594l.013-150.395c.019-6.119 5.013-11.113 11.132-11.132 5.583 0 11 5.53 10.983 11.006v119.738c0 4.142 3.358 7.5 7.5 7.5s7.5-3.358 7.5-7.5v-19.728c.019-6.12 5.013-11.113 11.132-11.132 5.582 0 11 5.53 10.983 11.006l-.001 20.725c0 4.142 3.357 7.5 7.5 7.5 4.142 0 7.5-3.358 7.5-7.5v-10.707c0-.003 0-.006 0-.009.019-6.12 5.013-11.113 11.132-11.132 5.582 0 11 5.53 10.983 11.005v11.713c0 4.142 3.358 7.5 7.5 7.5s7.5-3.358 7.5-7.5v-1.627c.121-6.017 5.103-10.924 11.117-10.943 5.583 0 10.998 5.53 10.98 11.006v78.868c0 14.715-3.924 29.163-11.349 41.782-2.1 3.57-.909 8.167 2.661 10.268 3.571 2.101 8.167.909 10.268-2.661 8.779-14.923 13.42-32.001 13.42-49.388v-78.845c.044-14.227-11.876-26.029-26.027-26.029-5.067.016-9.823 1.511-13.849 4.074-4.341-8.568-13.683-14.222-23.251-14.222-5.135.016-9.932 1.527-13.977 4.119-4.383-8.448-13.653-14.002-23.139-14.002-3.959.012-7.718.914-11.085 2.514v-35.099h145.729c24.34 0 44.142-19.802 44.142-44.142v-113.913c.002-24.341-19.8-44.143-44.14-44.143z"/><path d="m64.785 179.063c3.875 1.47 8.203-.479 9.673-4.352l6.281-16.553h42.004l6.216 16.532c1.368 3.639 6.058 5.735 9.66 4.38 3.877-1.458 5.838-5.783 4.38-9.66l-32.298-85.899c-.026-.068-.053-.137-.08-.205-1.464-3.573-4.902-5.879-8.759-5.879-.003 0-.007 0-.01 0-3.861.004-7.299 2.318-8.757 5.896-.023.056-.045.113-.067.17l-32.595 85.897c-1.469 3.873.479 8.203 4.352 9.673zm37.052-76.504 15.266 40.599h-30.672z"/><path d="m338.243 77.428c-4.142 0-7.5 3.358-7.5 7.5v87.049c0 3.651 2.629 6.958 6.228 7.577.533.092 21.881.055 31.709 0 4.142-.023 7.481-3.477 7.458-7.619-.023-4.128-3.376-7.385-7.499-7.385-.014 0-.029 0-.043 0-8.133.046-16.913.012-22.854 0v-79.622c.001-4.142-3.357-7.5-7.499-7.5z"/><path d="m416.929 179.551h.019c4.133 0 7.489-3.346 7.5-7.482l.103-42.293 26.297-40.545c2.254-3.475 1.264-8.12-2.211-10.374-3.474-2.253-8.119-1.264-10.374 2.211l-21.217 32.712-21.43-32.941c-2.26-3.473-6.904-4.456-10.376-2.197s-4.456 6.904-2.197 10.376l26.508 40.746-.103 42.268c-.011 4.143 3.339 7.509 7.481 7.519z"/><path d="m178.136 172.051v-30.375l16.67-.075c17.907 0 32.476-14.394 32.476-32.086s-14.569-32.086-32.476-32.086h-24.17c-4.142 0-7.5 3.358-7.5 7.5v87.123c0 4.142 3.358 7.5 7.5 7.5s7.5-3.359 7.5-7.501zm34.146-62.537c0 9.262-8.003 17.086-17.51 17.086l-16.636.075v-34.247h16.67c9.473 0 17.476 7.824 17.476 17.086z"/><path d="m261.939 172.051v-30.375l16.67-.075c17.907 0 32.476-14.394 32.476-32.086s-14.568-32.086-32.476-32.086h-24.17c-4.142 0-7.5 3.358-7.5 7.5v87.123c0 4.142 3.358 7.5 7.5 7.5s7.5-3.359 7.5-7.501zm34.146-62.537c0 9.262-8.003 17.086-17.509 17.086l-16.636.075v-34.247h16.67c9.472 0 17.475 7.824 17.475 17.086z"/></g></svg>