<svg xmlns="http://www.w3.org/2000/svg" xmlns:xlink="http://www.w3.org/1999/xlink" width="1056" zoomAndPan="magnify" viewBox="0 0 792 611.999999" height="816" preserveAspectRatio="xMidYMid meet" version="1.0"><defs><clipPath id="6fe5749f85"><path d="M 0 5.238281 L 790 5.238281 L 790 499 L 0 499 Z M 0 5.238281 " clip-rule="nonzero"/></clipPath><clipPath id="67f09982e8"><path d="M 215 570 L 575 570 L 575 611.988281 L 215 611.988281 Z M 215 570 " clip-rule="nonzero"/></clipPath></defs><path fill="#393536" d="M 488.140625 462.644531 L 302.113281 462.644531 L 302.113281 590.941406 L 488.140625 590.941406 L 488.140625 462.644531 " fill-opacity="1" fill-rule="nonzero"/><g clip-path="url(#6fe5749f85)"><path fill="#393536" d="M 771 449.496094 C 771 453.777344 767.519531 457.265625 763.242188 457.265625 L 27.011719 457.265625 C 22.734375 457.265625 19.246094 453.777344 19.246094 449.496094 L 19.246094 31.941406 C 19.246094 27.652344 22.734375 24.183594 27.011719 24.183594 L 763.242188 24.183594 C 767.519531 24.183594 771 27.652344 771 31.941406 Z M 763.242188 5.289062 L 27.011719 5.289062 C 12.289062 5.289062 0.363281 17.21875 0.363281 31.941406 L 0.363281 471.710938 C 0.363281 486.425781 12.289062 498.367188 27.011719 498.367188 L 763.242188 498.367188 C 777.953125 498.367188 789.882812 486.425781 789.882812 471.710938 L 789.882812 31.941406 C 789.882812 17.21875 777.953125 5.289062 763.242188 5.289062 " fill-opacity="1" fill-rule="nonzero"/></g><g clip-path="url(#67f09982e8)"><path fill="#393536" d="M 574.765625 611.9375 L 574.765625 582.667969 C 574.765625 575.980469 569.335938 570.550781 562.636719 570.550781 L 227.625 570.550781 C 220.929688 570.550781 215.488281 575.980469 215.488281 582.667969 L 215.488281 611.9375 L 574.765625 611.9375 " fill-opacity="1" fill-rule="nonzero"/></g><path fill="#393536" d="M 117.945312 348.648438 C 116.480469 350.085938 111.972656 349.015625 110.082031 348.789062 C 107.367188 348.460938 104.671875 347.90625 102.074219 347.054688 C 97.675781 345.597656 93.59375 343.210938 90.394531 339.839844 C 82.449219 331.46875 81.585938 319.777344 81.378906 308.808594 C 81.101562 295.144531 82.378906 281.132812 80.078125 267.605469 C 78.554688 258.589844 75.3125 249.425781 68.605469 242.945312 C 67.914062 242.269531 67.179688 241.628906 66.425781 241.023438 C 65.832031 240.566406 66.039062 239.972656 66.039062 239.230469 C 66.039062 237.820312 68.644531 236.296875 69.617188 235.234375 C 72.578125 232.027344 74.828125 228.230469 76.503906 224.21875 C 82.46875 209.832031 81.347656 193.808594 81.347656 178.558594 C 81.347656 169.039062 80.960938 159.117188 83.558594 149.863281 C 86.222656 140.324219 93.375 133.386719 102.859375 130.710938 C 105.324219 130.015625 107.859375 129.570312 110.40625 129.3125 C 112.429688 129.097656 117.035156 128.066406 118.699219 129.542969 C 120.117188 130.789062 119.304688 135.339844 119.304688 136.914062 C 119.304688 139.558594 119.304688 142.183594 119.304688 144.820312 C 119.304688 147.636719 116.707031 147.238281 114.648438 147.359375 C 111.972656 147.515625 109.246094 147.960938 106.769531 149.042969 C 99.519531 152.191406 98.082031 160.507812 97.605469 167.601562 C 97.003906 176.796875 98.179688 185.992188 98.636719 195.15625 C 99.429688 210.710938 98.308594 229.171875 85.71875 240.179688 C 94.542969 248.257812 97.644531 260.828125 98.371094 272.34375 C 99.042969 282.984375 97.457031 293.539062 97.457031 304.148438 C 97.457031 310.164062 97.6875 316.277344 99.914062 321.957031 C 102.015625 327.335938 107.175781 329.566406 112.617188 330.140625 C 114.5 330.316406 118.53125 329.445312 119.183594 331.882812 C 119.433594 332.824219 119.304688 333.964844 119.304688 334.9375 C 119.304688 338.234375 119.304688 341.535156 119.304688 344.835938 C 119.304688 346.835938 119.273438 347.074219 117.945312 348.648438 " fill-opacity="1" fill-rule="nonzero"/><path fill="#393536" d="M 662.488281 129.492188 C 663.953125 128.066406 668.464844 129.125 670.355469 129.363281 C 673.078125 129.679688 675.773438 130.234375 678.371094 131.097656 C 682.769531 132.554688 686.84375 134.933594 690.050781 138.300781 C 698 146.671875 698.859375 158.367188 699.066406 169.335938 C 699.324219 183.007812 698.078125 197.019531 700.367188 210.542969 C 701.902344 219.550781 705.132812 228.726562 711.839844 235.207031 C 712.53125 235.871094 713.265625 236.515625 714.019531 237.117188 C 714.613281 237.585938 714.394531 238.179688 714.394531 238.902344 C 714.394531 240.320312 711.800781 241.84375 710.808594 242.914062 C 707.855469 246.117188 705.617188 249.921875 703.941406 253.933594 C 697.976562 268.3125 699.109375 284.34375 699.109375 299.582031 C 699.109375 309.105469 699.484375 319.023438 696.886719 328.277344 C 694.214844 337.828125 687.070312 344.753906 677.589844 347.429688 C 675.121094 348.132812 672.574219 348.578125 670.039062 348.835938 C 668.007812 349.046875 663.398438 350.074219 661.746094 348.597656 C 660.339844 347.359375 661.132812 342.8125 661.132812 341.226562 C 661.132812 338.59375 661.132812 335.957031 661.132812 333.332031 C 661.132812 330.507812 663.738281 330.914062 665.789062 330.785156 C 668.484375 330.625 671.199219 330.167969 673.675781 329.109375 C 680.917969 325.957031 682.363281 317.644531 682.828125 310.539062 C 683.433594 301.335938 682.273438 292.152344 681.789062 282.984375 C 681.007812 267.4375 682.144531 248.980469 694.730469 237.949219 C 685.902344 229.886719 682.800781 217.320312 682.066406 205.808594 C 681.402344 195.15625 682.988281 184.613281 682.988281 174 C 682.988281 167.976562 682.761719 161.863281 680.53125 156.207031 C 678.429688 150.816406 673.277344 148.578125 667.828125 148.011719 C 665.957031 147.824219 661.902344 148.683594 661.269531 146.265625 C 661.011719 145.316406 661.132812 144.175781 661.132812 143.207031 C 661.132812 139.917969 661.132812 136.605469 661.132812 133.316406 C 661.132812 131.304688 661.171875 131.085938 662.488281 129.492188 " fill-opacity="1" fill-rule="nonzero"/><path fill="#393536" d="M 209.050781 67.671875 L 131.53125 67.671875 L 131.53125 87.789062 L 209.050781 87.789062 L 209.050781 67.671875 " fill-opacity="1" fill-rule="nonzero"/><path fill="#393536" d="M 216.074219 67.671875 L 216.074219 87.789062 L 277.027344 87.789062 L 277.027344 67.671875 L 216.074219 67.671875 " fill-opacity="1" fill-rule="nonzero"/><path fill="#393536" d="M 286.390625 67.671875 L 286.390625 87.789062 L 423.492188 87.789062 L 423.492188 67.671875 L 286.390625 67.671875 " fill-opacity="1" fill-rule="nonzero"/><path fill="#393536" d="M 183.8125 59.992188 L 131.53125 59.992188 L 131.53125 39.871094 L 183.8125 39.871094 L 183.8125 59.992188 " fill-opacity="1" fill-rule="nonzero"/><path fill="#393536" d="M 250.453125 99.527344 L 216.507812 99.527344 L 216.507812 119.652344 L 250.453125 119.652344 L 250.453125 99.527344 " fill-opacity="1" fill-rule="nonzero"/><path fill="#393536" d="M 568.246094 99.527344 L 261.402344 99.527344 L 261.402344 119.652344 L 568.246094 119.652344 L 568.246094 99.527344 " fill-opacity="1" fill-rule="nonzero"/><path fill="#393536" d="M 579.976562 99.527344 L 579.976562 119.652344 L 658.722656 119.652344 L 658.722656 99.527344 L 579.976562 99.527344 " fill-opacity="1" fill-rule="nonzero"/><path fill="#393536" d="M 533.875 131.386719 L 286.527344 131.386719 L 286.527344 151.5 L 533.875 151.5 L 533.875 131.386719 " fill-opacity="1" fill-rule="nonzero"/><path fill="#393536" d="M 615.128906 131.386719 L 543.25 131.386719 L 543.25 151.5 L 615.128906 151.5 L 615.128906 131.386719 " fill-opacity="1" fill-rule="nonzero"/><path fill="#393536" d="M 234.828125 163.25 L 216.507812 163.25 L 216.507812 183.375 L 234.828125 183.375 L 234.828125 163.25 " fill-opacity="1" fill-rule="nonzero"/><path fill="#393536" d="M 248.898438 163.25 L 248.898438 183.375 L 633.875 183.375 L 633.875 163.25 L 248.898438 163.25 " fill-opacity="1" fill-rule="nonzero"/><path fill="#393536" d="M 644.039062 163.25 L 644.039062 183.375 L 658.722656 183.375 L 658.722656 163.25 L 644.039062 163.25 " fill-opacity="1" fill-rule="nonzero"/><path fill="#393536" d="M 175.453125 195.117188 L 131.53125 195.117188 L 131.53125 215.230469 L 175.453125 215.230469 L 175.453125 195.117188 " fill-opacity="1" fill-rule="nonzero"/><path fill="#393536" d="M 239.527344 195.117188 L 186.390625 195.117188 L 186.390625 215.230469 L 239.527344 215.230469 L 239.527344 195.117188 " fill-opacity="1" fill-rule="nonzero"/><path fill="#393536" d="M 255.140625 195.117188 L 255.140625 215.230469 L 277.523438 215.230469 L 277.523438 195.117188 L 255.140625 195.117188 " fill-opacity="1" fill-rule="nonzero"/><path fill="#393536" d="M 472.914062 226.972656 L 312.179688 226.972656 L 312.179688 246.96875 L 298.121094 246.96875 L 298.121094 226.972656 L 216.507812 226.972656 L 216.507812 247.097656 L 472.914062 247.097656 L 472.914062 226.972656 " fill-opacity="1" fill-rule="nonzero"/><path fill="#393536" d="M 476.035156 226.972656 L 476.035156 247.097656 L 502.933594 247.097656 L 502.933594 226.972656 L 476.035156 226.972656 " fill-opacity="1" fill-rule="nonzero"/><path fill="#393536" d="M 271.546875 258.839844 L 257.753906 258.839844 L 257.753906 278.953125 L 271.546875 278.953125 L 271.546875 258.839844 " fill-opacity="1" fill-rule="nonzero"/><path fill="#393536" d="M 335.632812 258.839844 L 281.710938 258.839844 L 281.710938 278.953125 L 335.632812 278.953125 L 335.632812 258.839844 " fill-opacity="1" fill-rule="nonzero"/><path fill="#393536" d="M 570.59375 258.839844 L 343.449219 258.839844 L 343.449219 278.953125 L 570.59375 278.953125 L 570.59375 258.839844 " fill-opacity="1" fill-rule="nonzero"/><path fill="#393536" d="M 583.109375 258.839844 L 583.109375 278.953125 L 636.964844 278.953125 L 636.964844 258.839844 L 583.109375 258.839844 " fill-opacity="1" fill-rule="nonzero"/><path fill="#393536" d="M 315.308594 290.695312 L 257.753906 290.695312 L 257.753906 310.816406 L 315.308594 310.816406 L 315.308594 290.695312 " fill-opacity="1" fill-rule="nonzero"/><path fill="#393536" d="M 523.710938 290.695312 L 325.476562 290.695312 L 325.476562 310.816406 L 523.710938 310.816406 L 523.710938 290.695312 " fill-opacity="1" fill-rule="nonzero"/><path fill="#393536" d="M 547.152344 290.695312 L 547.152344 310.816406 L 658.722656 310.816406 L 658.722656 290.695312 L 547.152344 290.695312 " fill-opacity="1" fill-rule="nonzero"/><path fill="#393536" d="M 563.550781 322.558594 L 360.628906 322.558594 L 360.628906 342.683594 L 563.550781 342.683594 L 563.550781 322.558594 " fill-opacity="1" fill-rule="nonzero"/><path fill="#393536" d="M 345.785156 322.558594 L 257.753906 322.558594 L 257.753906 342.683594 L 345.785156 342.683594 L 345.785156 322.558594 " fill-opacity="1" fill-rule="nonzero"/><path fill="#393536" d="M 456.1875 374.550781 L 216.507812 374.550781 L 216.507812 354.414062 L 456.1875 354.414062 L 456.1875 374.550781 " fill-opacity="1" fill-rule="nonzero"/><path fill="#393536" d="M 160.601562 386.292969 L 131.53125 386.292969 L 131.53125 406.414062 L 160.601562 406.414062 L 160.601562 386.292969 " fill-opacity="1" fill-rule="nonzero"/><path fill="#393536" d="M 171.527344 386.292969 L 171.527344 406.414062 L 533.441406 406.414062 L 533.441406 386.292969 L 171.527344 386.292969 " fill-opacity="1" fill-rule="nonzero"/><path fill="#393536" d="M 183.8125 438.28125 L 131.53125 438.28125 L 131.53125 418.148438 L 183.8125 418.148438 L 183.8125 438.28125 " fill-opacity="1" fill-rule="nonzero"/></svg>