<svg xmlns="http://www.w3.org/2000/svg" xmlns:xlink="http://www.w3.org/1999/xlink" width="1056" zoomAndPan="magnify" viewBox="0 0 792 611.999999" height="816" preserveAspectRatio="xMidYMid meet" version="1.0"><defs><clipPath id="8e47fe4384"><path d="M 123.40625 12.746094 L 667.867188 12.746094 L 667.867188 599.246094 L 123.40625 599.246094 Z M 123.40625 12.746094 " clip-rule="nonzero"/></clipPath></defs><g clip-path="url(#8e47fe4384)"><path fill="#040606" d="M 235.160156 564.308594 L 235.160156 571.335938 C 202.367188 571.335938 169.367188 571.335938 136.730469 571.335938 C 129.390625 571.648438 123.09375 578.625 123.40625 585.914062 C 123.769531 593.207031 130.691406 599.558594 138.03125 599.246094 L 653.707031 599.246094 C 661.046875 599.347656 667.8125 592.632812 667.8125 585.238281 C 667.8125 577.898438 661.046875 571.179688 653.707031 571.335938 L 555.695312 571.335938 L 555.695312 564.308594 Z M 360.8125 424.710938 L 430.457031 424.710938 L 430.457031 438.664062 L 360.8125 438.664062 Z M 235.578125 368.84375 L 235.578125 557.328125 L 555.695312 557.328125 L 555.695312 368.84375 Z M 276.488281 279.386719 C 249.628906 294.070312 233.128906 301.046875 221.417969 309.691406 C 209.082031 318.855469 200.648438 330.363281 186.804688 357.90625 C 160.777344 407.945312 150.730469 445.382812 152.398438 472.457031 C 154.011719 499.535156 166.296875 516.769531 187.6875 529.421875 C 197.214844 535.097656 208.664062 539.523438 221.625 543.167969 L 221.625 361.863281 C 221.574219 358.585938 224.125 355.460938 227.300781 354.835938 L 562.667969 354.835938 C 566.3125 354.835938 569.644531 358.167969 569.644531 361.863281 L 569.644531 547.957031 C 589.683594 543.84375 605.351562 538.066406 616.230469 529.835938 C 632.417969 517.652344 640.070312 500.785156 639.34375 473.136719 C 638.613281 445.433594 628.671875 407.527344 609.515625 357.230469 C 599.15625 329.894531 591.039062 318.960938 578.335938 309.898438 C 566.367188 301.308594 548.667969 294.070312 521.757812 279.386719 C 487.664062 310.160156 444.824219 333.902344 395.636719 333.902344 C 347.019531 333.902344 305.273438 305.578125 276.488281 279.386719 Z M 395.636719 172.90625 C 441.285156 172.90625 486.933594 179.46875 499.949219 192.539062 C 499.949219 218.726562 500.15625 236.171875 474.027344 271.058594 C 456.640625 288.550781 430.40625 305.996094 395.636719 305.996094 C 360.863281 305.996094 334.839844 288.550781 317.453125 271.058594 C 291.375 236.171875 291.375 219.300781 291.324219 192.539062 C 304.390625 179.46875 349.984375 172.90625 395.636719 172.90625 Z M 395.636719 159.371094 C 343.425781 159.371094 306.261719 168.011719 259.105469 184.46875 C 258.167969 190.296875 257.59375 195.921875 257.59375 201.285156 C 257.59375 231.328125 260.613281 242.941406 275.449219 259.082031 C 302.671875 286.417969 346.550781 319.949219 395.636719 319.949219 C 443.730469 319.949219 485.894531 294.851562 519.363281 262.363281 C 527.117188 254.03125 531.855469 247.054688 534.5625 238.984375 C 537.738281 229.765625 538.726562 218.46875 538.726562 201.285156 C 538.726562 196.441406 538.152344 191.390625 537.425781 186.183594 C 492.140625 170.148438 442.585938 159.371094 395.636719 159.371094 Z M 397.820312 12.746094 C 386.316406 12.746094 371.066406 19.253906 355.347656 31.074219 C 339.628906 42.894531 323.542969 59.660156 308.96875 78.871094 C 288.148438 106.3125 270.972656 138.804688 262.800781 168.117188 C 307.09375 153.226562 345.042969 145.414062 395.636719 145.414062 C 441.910156 145.414062 489.902344 155.152344 534.144531 170.042969 C 526.234375 140.207031 508.898438 106.9375 487.558594 78.871094 C 472.933594 59.660156 456.535156 42.894531 440.710938 31.074219 C 424.890625 19.253906 409.535156 12.746094 397.820312 12.746094 " fill-opacity="1" fill-rule="nonzero"/></g></svg>