<svg id="Layer_1" enable-background="new 0 0 512 512" viewBox="0 0 512 512" xmlns="http://www.w3.org/2000/svg"><g><g><path d="m178.424 72.314v64.226c0 4.142 3.358 7.499 7.5 7.499s7.5-3.358 7.5-7.499v-64.226c0-4.142-3.358-7.499-7.5-7.499s-7.5 3.358-7.5 7.499z"/><path d="m158.704 144.039c4.142 0 7.5-3.358 7.5-7.499v-64.226c0-4.142-3.358-7.499-7.5-7.499s-7.5 3.358-7.5 7.499v23.512h-29.508v-23.512c0-4.142-3.358-7.499-7.5-7.499s-7.5 3.358-7.5 7.499v64.226c0 4.142 3.358 7.499 7.5 7.499s7.5-3.358 7.5-7.499v-25.715h29.508v25.715c0 4.142 3.358 7.499 7.5 7.499z"/><path d="m299.441 79.814c4.142 0 7.5-3.358 7.5-7.499 0-4.142-3.358-7.499-7.5-7.499h-26.854c-4.142 0-7.5 3.358-7.5 7.499v64.226c0 4.142 3.358 7.499 7.5 7.499h26.854c4.142 0 7.5-3.358 7.5-7.499s-3.358-7.499-7.5-7.499h-19.354v-17.114h17.374c4.142 0 7.5-3.358 7.5-7.499 0-4.142-3.358-7.499-7.5-7.499h-17.374v-17.116z"/><path d="m322.347 64.815c-1.992 0-3.901.792-5.309 2.202-1.407 1.41-2.195 3.321-2.191 5.312l.126 64.226c.004 1.992.8 3.9 2.212 5.304 1.405 1.397 3.307 2.181 5.288 2.181h.029c.534-.002 13.138-.052 18.173-.143 18.573-.334 32.053-16.933 32.053-39.469 0-23.693-13.143-39.612-32.705-39.612h-17.676zm35.382 39.612c0 11.637-5.421 24.259-17.323 24.474-2.394.043-6.669.077-10.447.101l-.097-49.188h10.163c13.053 0 17.704 12.714 17.704 24.613z"/><path d="m255.089 89.006c0-13.339-11.288-24.191-25.162-24.191h-17.091c-4.141 0-7.499 3.356-7.5 7.497l-.021 64.226c-.001 4.142 3.355 7.5 7.498 7.502h.002c4.141 0 7.499-3.356 7.5-7.497l.006-19.597 21.641 24.553c1.482 1.682 3.55 2.541 5.629 2.541 1.761 0 3.531-.617 4.956-1.873 3.107-2.738 3.406-7.477.668-10.585l-16.902-19.176c10.792-2.726 18.776-12.183 18.776-23.4zm-25.162 9.192c-2.229 0-6.108.016-9.6.034l.006-18.418h9.594c5.508 0 10.162 4.21 10.162 9.192s-4.653 9.192-10.162 9.192z"/><path d="m397.804 64.815c-4.142 0-7.5 3.358-7.5 7.499v41.01c0 4.142 3.358 7.499 7.5 7.499s7.5-3.358 7.5-7.499v-41.01c0-4.141-3.358-7.499-7.5-7.499z"/><path d="m397.824 129.04h-.01c-4.142 0-7.495 3.358-7.495 7.499s3.363 7.499 7.505 7.499 7.5-3.358 7.5-7.499-3.358-7.499-7.5-7.499z"/><path d="m498.153 298.336h-57.306c-7.635 0-13.847 6.211-13.847 13.846v2.575l-51.05-.242c-3.535 0-7.049-.913-10.159-2.637l-68.252-37.908c-17.554-9.739-39.197-9.447-56.485.762l-11.618 6.867c-6.69-2.442-13.226-3.724-19.452-3.79-29.963-.348-73.147 22.224-85.662 29.141-6.001 3.317-20.939 6.667-39.321 7.409v-2.176c0-7.635-6.212-13.846-13.847-13.846h-57.307c-7.635-.001-13.847 6.211-13.847 13.845v72.452c0 4.142 3.358 7.499 7.5 7.499s7.5-3.358 7.5-7.499v-71.299h55v122.99h-55v-16.36c0-4.142-3.358-7.499-7.5-7.499s-7.5 3.357-7.5 7.499v17.513c0 7.635 6.212 13.846 13.847 13.846h57.306c7.635 0 13.847-6.211 13.847-13.846v-.931l39.511-.059h.035c5.575 0 10.933 2.045 15.066 5.737l69.54 62.708c5.105 4.697 11.543 7.069 18.003 7.068 5.833 0 11.685-1.934 16.585-5.838 4.716-3.757 7.971-8.979 9.322-14.764 2.954 1.118 6.073 1.687 9.201 1.686 5.751 0 11.522-1.904 16.292-5.759 4.924-3.979 8.213-9.646 9.267-15.838 1.967.44 3.977.67 5.991.67 5.637 0 11.302-1.737 16.124-5.288 4.371-3.219 7.634-7.645 9.451-12.657 5.231 4.799 11.972 7.257 18.747 7.257 6.131 0 12.285-2.008 17.354-6.1 5.126-4.138 8.603-10.013 9.814-16.44 4.302 1.742 9.77 3.23 15.909 3.23 5.457 0 11.445-1.177 17.603-4.396 3.375-1.764 6.834-2.659 10.28-2.659h17.905v2.372c0 7.635 6.212 13.846 13.847 13.846h57.306c7.635 0 13.847-6.211 13.847-13.846v-125.295c0-7.634-6.212-13.846-13.847-13.846zm-152.088 145.363c-4.896 4.419-12.69 3.623-17.206-1.185l-15.219-16.202-.003-.004c-.001-.001-.001-.001-.002-.002l-33.371-35.528c-2.836-3.018-7.582-3.167-10.602-.332-3.019 2.835-3.168 7.581-.332 10.601l33.375 35.532c2.426 2.584 3.585 5.95 3.263 9.479-.322 3.531-2.072 6.633-4.927 8.735-4.951 3.645-11.877 3.034-16.114-1.422l-3.871-4.072c-.002-.002-.004-.004-.006-.007-.001-.001-.002-.002-.003-.003l-29.285-30.807c-2.854-3.003-7.602-3.122-10.603-.269-3.002 2.853-3.123 7.6-.269 10.602l29.291 30.813c2.125 2.238 3.184 5.165 2.982 8.244-.202 3.081-1.636 5.846-4.038 7.786-4.306 3.48-10.542 3.189-14.506-.678l-34.585-33.738c-2.965-2.893-7.714-2.835-10.605.131-2.893 2.965-2.834 7.713.131 10.605l25.703 25.074s.001.001.001.002c2.417 2.358 3.654 5.513 3.485 8.885s-1.717 6.388-4.358 8.491c-4.502 3.588-10.847 3.363-15.14-.587l-69.621-62.781c-6.913-6.175-15.819-9.574-25.086-9.574h-.057l-39.487.059v-92.175c19.604-.719 37.371-4.208 46.577-9.296 22.842-12.624 56.803-27.272 77.776-27.272.157 0 .315.001.471.002.201.002.407.018.61.023l-18.289 10.81c-6.946 4.105-11.775 11.01-13.249 18.945-1.474 7.937.554 16.117 5.569 22.449 5.338 6.729 13.323 10.588 21.906 10.588 4.469 0 8.94-1.1 12.933-3.182l29.713-15.521c6.936-3.628 15.483-2.138 20.785 3.622l77.667 84.749c4.753 5.119 5.198 12.452-1.404 18.41zm80.935-23.593h-17.907c-5.807 0-11.764 1.51-17.228 4.365-12.53 6.549-24.371-.849-26.738-2.489l-84.288-91.597c-9.889-10.746-25.835-13.526-38.771-6.758l-29.706 15.517c-1.882.981-3.898 1.479-5.991 1.479-3.978 0-7.679-1.79-10.151-4.906-2.32-2.929-3.259-6.718-2.577-10.394.683-3.674 2.918-6.871 6.134-8.772l48.908-28.906c12.725-7.514 28.657-7.729 41.574-.561l68.255 37.909c5.334 2.957 11.364 4.521 17.401 4.521l51.085.242zm70 16.219h-55v-122.99h55z"/><path d="m100.516 208.853h122.821l22.112 34.369c2.32 3.605 6.264 5.757 10.551 5.757s8.231-2.152 10.552-5.758l22.111-34.368h122.821c19.308 0 35.016-15.707 35.016-35.013v-138.827c0-19.306-15.708-35.013-35.016-35.013h-26.706c-4.142 0-7.5 3.358-7.5 7.499s3.358 7.499 7.5 7.499h26.706c11.037 0 20.016 8.978 20.016 20.014v138.828c0 11.036-8.979 20.014-20.016 20.014h-123.472c-4.718 0-9.059 2.369-11.611 6.336l-20.401 31.709-20.4-31.709c-2.553-3.967-6.893-6.336-11.611-6.336h-123.473c-11.037 0-20.016-8.978-20.016-20.014v-138.827c0-11.036 8.979-20.014 20.016-20.014h249.595c4.142 0 7.5-3.358 7.5-7.499s-3.358-7.5-7.5-7.5h-249.595c-19.308 0-35.016 15.707-35.016 35.013v138.827c0 19.306 15.708 35.013 35.016 35.013z"/></g></g><g/><g/><g/><g/><g/><g/><g/><g/><g/><g/><g/><g/><g/><g/><g/></svg>