<svg clip-rule="evenodd" fill-rule="evenodd" height="512" image-rendering="optimizeQuality" shape-rendering="geometricPrecision" text-rendering="geometricPrecision" viewBox="0 0 43.3492 43.3492" width="512" xmlns="http://www.w3.org/2000/svg"><g id="Layer_x0020_1"><g id="_353302000"><path id="_353302264" d="m20.4718 3.8774c.6911-.6647 1.8246-.6452 2.4742.0702l19.872 19.1101c.6894.663.7106 1.7602.0476 2.4494s-1.76.7104-2.4493.0476l-18.7417-18.0232-18.7417 18.0232c-.6893.6628-1.7863.6416-2.4493-.0476s-.6418-1.7864.0476-2.4494c6.6466-6.3918 13.2969-12.7913 19.9406-19.1803z"/><path id="_353302096" d="m20.5577 15.5438c.6405-.616 1.6944-.6002 2.2965.0641l14.8844 14.3137c.6401.6156.6597 1.6344.0441 2.2744s-1.6342.6597-2.2742.0442l-13.8339-13.3035-13.8339 13.3035c-.64.6155-1.6586.5958-2.2742-.0442s-.596-1.6588.0441-2.2744c4.9822-4.7911 9.9678-9.589 14.9471-14.3778z"/><path id="_353302072" d="m20.6344 26.5991c.5963-.5733 1.5766-.5586 2.1378.0587l11.1466 10.7193c.5962.5733.6145 1.5223.0411 2.1184-.5733.596-1.5221.6144-2.1182.0411l-10.1671-9.7773-10.1671 9.7773c-.5961.5733-1.5449.5549-2.1182-.0411-.5734-.5961-.5551-1.5451.0411-2.1184 3.7346-3.5914 7.4716-7.1889 11.204-10.778z"/></g></g></svg>