<svg xmlns="http://www.w3.org/2000/svg" xmlns:xlink="http://www.w3.org/1999/xlink" width="1056" zoomAndPan="magnify" viewBox="0 0 792 611.999999" height="816" preserveAspectRatio="xMidYMid meet" version="1.0"><defs><clipPath id="c6f557147c"><path d="M 131.769531 11.394531 L 384 11.394531 L 384 568 L 131.769531 568 Z M 131.769531 11.394531 " clip-rule="nonzero"/></clipPath><clipPath id="f89ecb5d0a"><path d="M 384 45 L 635.769531 45 L 635.769531 600.894531 L 384 600.894531 Z M 384 45 " clip-rule="nonzero"/></clipPath><clipPath id="704eb30584"><path d="M 269.125 180.304688 L 487 180.304688 L 487 397 L 269.125 397 Z M 269.125 180.304688 " clip-rule="nonzero"/></clipPath></defs><g clip-path="url(#c6f557147c)"><path fill="#212121" d="M 131.988281 311.988281 C 132.015625 319.285156 132.308594 326.457031 132.898438 333.726562 C 133.632812 342.335938 134.753906 350.734375 136.300781 359.234375 C 137.78125 367.15625 139.574219 374.863281 141.746094 382.617188 C 143.9375 390.292969 146.410156 397.730469 149.257812 405.1875 C 152.121094 412.578125 155.246094 419.71875 158.734375 426.835938 C 162.453125 434.316406 166.433594 441.496094 170.808594 448.605469 C 175.457031 456.074219 180.367188 463.175781 185.703125 470.167969 C 190.511719 476.390625 195.488281 482.304688 200.796875 488.09375 C 206.460938 494.203125 212.289062 499.949219 218.480469 505.527344 C 224.71875 511.085938 231.09375 516.269531 237.808594 521.238281 C 244.207031 525.929688 250.683594 530.261719 257.464844 534.378906 C 265.535156 539.226562 273.6875 543.5625 282.210938 547.550781 C 289.984375 551.140625 297.769531 554.300781 305.84375 557.148438 C 314.042969 559.992188 322.21875 562.402344 330.648438 564.457031 C 334.910156 565.476562 339.148438 566.390625 343.457031 567.214844 L 348.167969 542.3125 C 340.402344 540.824219 332.867188 539.007812 325.273438 536.789062 C 317.414062 534.449219 309.820312 531.777344 302.230469 528.664062 C 294.355469 525.390625 286.8125 521.785156 279.320312 517.71875 C 271.179688 513.242188 263.457031 508.40625 255.878906 503.039062 C 248.371094 497.667969 241.320312 492 234.464844 485.816406 C 227.039062 479.058594 220.1875 472.011719 213.640625 464.402344 C 207.679688 457.394531 202.234375 450.222656 197.085938 442.605469 C 191.730469 434.585938 186.960938 426.441406 182.578125 417.855469 C 178.410156 409.582031 174.785156 401.253906 171.582031 392.554688 C 168.378906 383.765625 165.757812 374.992188 163.585938 365.890625 C 161.625 357.5 160.144531 349.195312 159.074219 340.648438 C 158.140625 332.832031 157.585938 325.128906 157.394531 317.261719 C 157.355469 315.5 157.335938 313.746094 157.335938 311.988281 C 157.355469 303.339844 157.816406 294.882812 158.734375 286.285156 C 159.730469 277.410156 161.175781 268.792969 163.121094 260.085938 C 163.59375 258.042969 164.082031 256.019531 164.589844 253.984375 C 168.5625 238.582031 173.878906 224.066406 180.785156 209.742188 C 184.414062 202.308594 188.332031 195.214844 192.683594 188.183594 C 197.714844 180.140625 203.089844 172.5625 209.015625 165.15625 C 215.234375 157.453125 221.761719 150.292969 228.863281 143.398438 C 235.417969 137.089844 242.179688 131.273438 249.382812 125.726562 C 257 119.933594 264.773438 114.699219 273.007812 109.832031 C 281.355469 104.953125 289.796875 100.675781 298.660156 96.820312 C 305.453125 93.902344 312.257812 91.335938 319.242188 89.0625 L 266.816406 141.136719 L 275.75 150.125 L 284.675781 159.117188 L 369.246094 75.109375 L 383.109375 61.34375 L 364.882812 54.296875 L 253.714844 11.355469 L 244.582031 34.996094 L 317.355469 63.109375 C 316.5625 63.339844 315.769531 63.578125 314.976562 63.824219 C 306.863281 66.351562 299.027344 69.191406 291.175781 72.460938 C 283.875 75.546875 276.832031 78.886719 269.820312 82.589844 C 262.074219 86.730469 254.667969 91.164062 247.351562 96.027344 C 240.496094 100.644531 233.96875 105.476562 227.546875 110.683594 C 220.480469 116.492188 213.835938 122.523438 207.378906 129 C 205.140625 131.269531 202.957031 133.550781 200.789062 135.882812 C 191.207031 146.332031 182.675781 157.242188 174.839844 169.0625 C 170.835938 175.171875 167.125 181.339844 163.617188 187.746094 C 159.015625 196.21875 154.957031 204.765625 151.285156 213.679688 C 148.152344 221.386719 145.425781 229.089844 143.007812 237.046875 C 140.605469 245.085938 138.613281 253.082031 136.957031 261.3125 C 135.328125 269.640625 134.109375 277.886719 133.25 286.335938 C 132.472656 294.433594 132.058594 302.410156 131.996094 310.542969 L 131.988281 311.988281 " fill-opacity="1" fill-rule="nonzero"/></g><g clip-path="url(#f89ecb5d0a)"><path fill="#212121" d="M 635.652344 300.257812 C 635.628906 292.960938 635.332031 285.789062 634.746094 278.519531 C 634.003906 269.910156 632.890625 261.511719 631.34375 253.011719 C 629.859375 245.089844 628.0625 237.382812 625.898438 229.628906 C 623.707031 221.953125 621.230469 214.515625 618.382812 207.058594 C 615.519531 199.667969 612.394531 192.527344 608.902344 185.410156 C 605.191406 177.929688 601.207031 170.75 596.832031 163.632812 C 592.179688 156.171875 587.273438 149.070312 581.933594 142.078125 C 577.128906 135.855469 572.15625 129.941406 566.84375 124.152344 C 561.179688 118.042969 555.355469 112.296875 549.160156 106.71875 C 542.921875 101.160156 536.546875 95.976562 529.832031 91.007812 C 523.433594 86.316406 516.949219 81.984375 510.175781 77.867188 C 502.109375 73.019531 493.957031 68.683594 485.429688 64.695312 C 477.65625 61.105469 469.871094 57.945312 461.796875 55.097656 C 453.59375 52.253906 445.421875 49.84375 436.992188 47.789062 C 432.730469 46.769531 428.484375 45.855469 424.1875 45.03125 L 419.476562 69.933594 C 427.242188 71.421875 434.773438 73.238281 442.359375 75.457031 C 450.230469 77.796875 457.820312 80.46875 465.414062 83.582031 C 473.289062 86.859375 480.828125 90.460938 488.324219 94.527344 C 496.464844 99.007812 504.183594 103.832031 511.761719 109.207031 C 519.269531 114.578125 526.320312 120.25 533.179688 126.429688 C 540.601562 133.183594 547.453125 140.234375 554 147.84375 C 559.960938 154.851562 565.40625 162.023438 570.558594 169.640625 C 575.914062 177.660156 580.679688 185.804688 585.0625 194.390625 C 589.234375 202.664062 592.847656 210.996094 596.058594 219.691406 C 599.253906 228.480469 601.882812 237.253906 604.054688 246.355469 C 606.015625 254.746094 607.496094 263.046875 608.566406 271.597656 C 609.5 279.414062 610.054688 287.117188 610.25 294.988281 C 610.289062 296.746094 610.308594 298.5 610.308594 300.257812 C 610.289062 308.90625 609.824219 317.363281 608.910156 325.960938 C 607.910156 334.828125 606.472656 343.453125 604.519531 352.160156 C 604.050781 354.203125 603.558594 356.226562 603.050781 358.253906 C 599.082031 373.664062 593.769531 388.179688 586.855469 402.503906 C 583.226562 409.9375 579.308594 417.03125 574.957031 424.0625 C 569.925781 432.105469 564.550781 439.6875 558.628906 447.089844 C 552.410156 454.792969 545.878906 461.953125 538.777344 468.847656 C 532.222656 475.15625 525.46875 480.972656 518.257812 486.519531 C 510.640625 492.3125 502.871094 497.546875 494.625 502.414062 C 486.289062 507.292969 477.84375 511.570312 468.984375 515.425781 C 462.183594 518.34375 455.386719 520.902344 448.398438 523.183594 L 500.820312 471.109375 L 491.894531 462.121094 L 482.960938 453.128906 L 398.394531 537.136719 L 384.53125 550.902344 L 402.757812 557.949219 L 513.929688 600.890625 L 523.058594 577.25 L 450.289062 549.136719 C 451.082031 548.90625 451.871094 548.667969 452.664062 548.421875 C 460.78125 545.894531 468.617188 543.046875 476.460938 539.785156 C 483.765625 536.699219 490.8125 533.359375 497.824219 529.65625 C 505.570312 525.519531 512.972656 521.082031 520.289062 516.21875 C 527.144531 511.601562 533.675781 506.769531 540.085938 501.5625 C 547.164062 495.753906 553.808594 489.722656 560.265625 483.246094 C 562.5 480.976562 564.6875 478.695312 566.851562 476.363281 C 576.433594 465.914062 584.96875 455.003906 592.796875 443.183594 C 596.804688 437.074219 600.519531 430.90625 604.023438 424.5 C 608.625 416.027344 612.683594 407.480469 616.359375 398.566406 C 619.492188 390.859375 622.21875 383.15625 624.632812 375.199219 C 627.039062 367.160156 629.027344 359.164062 630.683594 350.941406 C 632.316406 342.601562 633.535156 334.359375 634.390625 325.910156 C 635.171875 317.8125 635.582031 309.835938 635.648438 301.695312 L 635.652344 300.257812 " fill-opacity="1" fill-rule="nonzero"/></g><path fill="white" d="M 283.363281 186.746094 L 472.882812 186.746094 C 473.417969 186.746094 473.945312 186.796875 474.464844 186.902344 C 474.988281 187.003906 475.496094 187.160156 475.988281 187.363281 C 476.480469 187.566406 476.945312 187.816406 477.390625 188.109375 C 477.832031 188.40625 478.242188 188.742188 478.617188 189.121094 C 478.996094 189.496094 479.332031 189.90625 479.625 190.347656 C 479.921875 190.789062 480.171875 191.257812 480.375 191.75 C 480.578125 192.238281 480.734375 192.746094 480.835938 193.269531 C 480.941406 193.789062 480.992188 194.316406 480.992188 194.851562 L 480.992188 382.816406 C 480.992188 383.347656 480.941406 383.875 480.835938 384.398438 C 480.734375 384.917969 480.578125 385.425781 480.375 385.917969 C 480.171875 386.410156 479.921875 386.875 479.625 387.316406 C 479.332031 387.761719 478.996094 388.167969 478.617188 388.546875 C 478.242188 388.921875 477.832031 389.257812 477.390625 389.554688 C 476.945312 389.851562 476.480469 390.097656 475.988281 390.304688 C 475.496094 390.507812 474.988281 390.660156 474.464844 390.765625 C 473.945312 390.867188 473.417969 390.917969 472.882812 390.917969 L 283.363281 390.917969 C 282.832031 390.917969 282.304688 390.867188 281.78125 390.765625 C 281.257812 390.660156 280.753906 390.507812 280.261719 390.304688 C 279.769531 390.097656 279.300781 389.851562 278.859375 389.554688 C 278.417969 389.257812 278.007812 388.921875 277.628906 388.546875 C 277.253906 388.167969 276.917969 387.761719 276.621094 387.316406 C 276.324219 386.875 276.078125 386.410156 275.871094 385.917969 C 275.667969 385.425781 275.515625 384.917969 275.410156 384.398438 C 275.308594 383.875 275.253906 383.347656 275.253906 382.816406 L 275.253906 194.851562 C 275.253906 194.316406 275.308594 193.789062 275.410156 193.269531 C 275.515625 192.746094 275.667969 192.238281 275.871094 191.75 C 276.078125 191.257812 276.324219 190.789062 276.621094 190.347656 C 276.917969 189.90625 277.253906 189.496094 277.628906 189.121094 C 278.007812 188.742188 278.417969 188.40625 278.859375 188.109375 C 279.300781 187.816406 279.769531 187.566406 280.261719 187.363281 C 280.753906 187.160156 281.257812 187.003906 281.78125 186.902344 C 282.304688 186.796875 282.832031 186.746094 283.363281 186.746094 " fill-opacity="0" fill-rule="evenodd"/><g clip-path="url(#704eb30584)"><path stroke-linecap="butt" transform="matrix(4.752981, 0, 0, 4.750562, 260.096063, 171.223474)" fill="none" stroke-linejoin="round" d="M 4.895289 3.267533 L 44.769113 3.267533 C 44.881707 3.267533 44.992657 3.278223 45.101963 3.300424 C 45.212091 3.321803 45.318932 3.354694 45.422486 3.397452 C 45.526039 3.44021 45.62384 3.492835 45.717531 3.554506 C 45.8104 3.616998 45.896695 3.687714 45.975592 3.767474 C 46.055312 3.846412 46.125991 3.93275 46.18763 4.025667 C 46.250091 4.118584 46.30269 4.217256 46.345426 4.320862 C 46.388162 4.423646 46.421037 4.530542 46.442405 4.640726 C 46.464595 4.750088 46.475279 4.861095 46.475279 4.973746 L 46.475279 44.540609 C 46.475279 44.652438 46.464595 44.763444 46.442405 44.873629 C 46.421037 44.982991 46.388162 45.089886 46.345426 45.193492 C 46.30269 45.297098 46.250091 45.394948 46.18763 45.487865 C 46.125991 45.581604 46.055312 45.66712 45.975592 45.74688 C 45.896695 45.825818 45.8104 45.896534 45.717531 45.959026 C 45.62384 46.021519 45.526039 46.073322 45.422486 46.116902 C 45.318932 46.159661 45.212091 46.191729 45.101963 46.21393 C 44.992657 46.235309 44.881707 46.245999 44.769113 46.245999 L 4.895289 46.245999 C 4.783517 46.245999 4.672567 46.235309 4.562439 46.21393 C 4.452311 46.191729 4.346292 46.159661 4.242738 46.116902 C 4.139185 46.073322 4.040563 46.021519 3.947693 45.959026 C 3.854824 45.896534 3.768529 45.825818 3.68881 45.74688 C 3.609912 45.66712 3.539233 45.581604 3.476772 45.487865 C 3.414311 45.394948 3.362534 45.297098 3.318976 45.193492 C 3.27624 45.089886 3.244187 44.982991 3.221997 44.873629 C 3.200629 44.763444 3.189123 44.652438 3.189123 44.540609 L 3.189123 4.973746 C 3.189123 4.861095 3.200629 4.750088 3.221997 4.640726 C 3.244187 4.530542 3.27624 4.423646 3.318976 4.320862 C 3.362534 4.217256 3.414311 4.118584 3.476772 4.025667 C 3.539233 3.93275 3.609912 3.846412 3.68881 3.767474 C 3.768529 3.687714 3.854824 3.616998 3.947693 3.554506 C 4.040563 3.492835 4.139185 3.44021 4.242738 3.397452 C 4.346292 3.354694 4.452311 3.321803 4.562439 3.300424 C 4.672567 3.278223 4.783517 3.267533 4.895289 3.267533 " stroke="#4c4c4c" stroke-width="2.5" stroke-opacity="1" stroke-miterlimit="4" style="fill: none;stroke: white;"/></g><path fill="#4c4c4c" d="M 447.78125 241.519531 C 449.691406 241.519531 451.15625 240.695312 452.171875 239.050781 C 453.1875 237.40625 453.835938 235.457031 454.121094 233.261719 C 454.40625 231.066406 454.578125 228.933594 454.578125 226.863281 C 454.578125 224.707031 454.425781 222.546875 454.121094 220.371094 C 453.816406 218.199219 453.1875 216.296875 452.171875 214.671875 C 451.15625 213.046875 449.710938 212.234375 447.78125 212.234375 C 445.847656 212.234375 444.375 213.046875 443.359375 214.671875 C 442.34375 216.296875 441.714844 218.199219 441.410156 220.371094 C 441.101562 222.546875 440.980469 224.707031 440.980469 226.863281 C 440.980469 230.519531 441.429688 233.882812 442.324219 236.949219 C 443.21875 239.996094 445.035156 241.519531 447.78125 241.519531 Z M 447.78125 250.082031 C 443.835938 250.082031 440.625 248.925781 438.144531 246.609375 C 435.667969 244.292969 433.886719 241.378906 432.8125 237.863281 C 431.753906 234.347656 431.226562 230.679688 431.226562 226.863281 C 431.226562 224.078125 431.511719 221.355469 432.078125 218.695312 C 432.648438 216.035156 433.582031 213.535156 434.882812 211.261719 C 436.183594 208.984375 437.902344 207.136719 440.035156 205.773438 C 442.171875 204.414062 444.773438 203.703125 447.78125 203.703125 C 450.808594 203.703125 453.378906 204.394531 455.492188 205.773438 C 457.628906 207.136719 459.335938 208.953125 460.617188 211.230469 C 461.898438 213.503906 462.851562 215.992188 463.421875 218.695312 C 463.988281 221.398438 464.304688 224.121094 464.304688 226.863281 C 464.304688 229.605469 464.011719 232.335938 463.421875 235.058594 C 462.832031 237.78125 461.925781 240.25 460.648438 242.523438 C 459.367188 244.800781 457.648438 246.628906 455.492188 248.011719 C 453.339844 249.390625 450.769531 250.082031 447.78125 250.082031 Z M 411.925781 241.519531 C 413.835938 241.519531 415.300781 240.695312 416.316406 239.050781 C 417.332031 237.40625 417.984375 235.457031 418.265625 233.261719 C 418.550781 231.066406 418.726562 228.933594 418.726562 226.863281 C 418.726562 224.707031 418.574219 222.546875 418.265625 220.371094 C 417.960938 218.199219 417.332031 216.296875 416.316406 214.671875 C 415.300781 213.046875 413.855469 212.234375 411.925781 212.234375 C 409.996094 212.234375 408.519531 213.046875 407.503906 214.671875 C 406.488281 216.296875 405.859375 218.199219 405.554688 220.371094 C 405.25 222.546875 405.128906 224.707031 405.128906 226.863281 C 405.128906 230.519531 405.574219 233.882812 406.46875 236.949219 C 407.363281 239.996094 409.183594 241.519531 411.925781 241.519531 Z M 411.925781 250.082031 C 407.984375 250.082031 404.769531 248.925781 402.292969 246.609375 C 399.8125 244.292969 398.035156 241.378906 396.957031 237.863281 C 395.898438 234.347656 395.371094 230.679688 395.371094 226.863281 C 395.371094 224.078125 395.65625 221.355469 396.222656 218.695312 C 396.792969 216.035156 397.730469 213.535156 399.03125 211.261719 C 400.332031 208.984375 402.046875 207.136719 404.183594 205.773438 C 406.316406 204.414062 408.917969 203.703125 411.925781 203.703125 C 414.953125 203.703125 417.527344 204.394531 419.640625 205.773438 C 421.773438 207.136719 423.480469 208.953125 424.761719 211.230469 C 426.042969 213.503906 426.996094 215.992188 427.566406 218.695312 C 428.136719 221.398438 428.449219 224.121094 428.449219 226.863281 C 428.449219 229.605469 428.15625 232.335938 427.566406 235.058594 C 426.976562 237.78125 426.074219 240.25 424.792969 242.523438 C 423.511719 244.800781 421.792969 246.628906 419.640625 248.011719 C 417.484375 249.390625 414.914062 250.082031 411.925781 250.082031 Z M 380.371094 244.75 L 380.371094 213.117188 L 376.679688 213.117188 C 375.277344 213.117188 374.222656 212.703125 373.511719 211.871094 C 372.800781 211.035156 372.445312 210.019531 372.445312 208.820312 C 372.445312 207.625 372.820312 206.617188 373.570312 205.746094 C 374.324219 204.871094 375.378906 204.433594 376.679688 204.433594 L 385.554688 204.433594 C 386.425781 204.433594 387.179688 204.636719 387.808594 205.042969 C 388.441406 205.429688 388.917969 205.957031 389.242188 206.628906 C 389.566406 207.296875 389.730469 208.050781 389.730469 208.945312 L 389.730469 244.75 C 389.730469 246.335938 389.304688 247.554688 388.449219 248.40625 C 387.597656 249.257812 386.46875 249.6875 385.066406 249.6875 C 383.683594 249.6875 382.554688 249.25 381.679688 248.375 C 380.808594 247.503906 380.371094 246.292969 380.371094 244.75 Z M 357.261719 244.75 L 357.261719 213.117188 L 353.570312 213.117188 C 352.167969 213.117188 351.113281 212.703125 350.398438 211.871094 C 349.6875 211.035156 349.332031 210.019531 349.332031 208.820312 C 349.332031 207.625 349.710938 206.617188 350.460938 205.746094 C 351.214844 204.871094 352.269531 204.433594 353.570312 204.433594 L 362.441406 204.433594 C 363.316406 204.433594 364.070312 204.636719 364.699219 205.042969 C 365.328125 205.429688 365.808594 205.957031 366.132812 206.628906 C 366.457031 207.296875 366.621094 208.050781 366.621094 208.945312 L 366.621094 244.75 C 366.621094 246.335938 366.191406 247.554688 365.339844 248.40625 C 364.484375 249.257812 363.359375 249.6875 361.957031 249.6875 C 360.574219 249.6875 359.445312 249.25 358.570312 248.375 C 357.695312 247.503906 357.261719 246.292969 357.261719 244.75 Z M 329.851562 241.519531 C 331.761719 241.519531 333.226562 240.695312 334.242188 239.050781 C 335.257812 237.40625 335.90625 235.457031 336.191406 233.261719 C 336.476562 231.066406 336.648438 228.933594 336.648438 226.863281 C 336.648438 224.707031 336.496094 222.546875 336.191406 220.371094 C 335.886719 218.199219 335.257812 216.296875 334.242188 214.671875 C 333.226562 213.046875 331.78125 212.234375 329.851562 212.234375 C 327.921875 212.234375 326.445312 213.046875 325.429688 214.671875 C 324.414062 216.296875 323.785156 218.199219 323.480469 220.371094 C 323.175781 222.546875 323.050781 224.707031 323.050781 226.863281 C 323.050781 230.519531 323.5 233.882812 324.394531 236.949219 C 325.289062 239.996094 327.105469 241.519531 329.851562 241.519531 Z M 329.851562 250.082031 C 325.90625 250.082031 322.695312 248.925781 320.21875 246.609375 C 317.738281 244.292969 315.957031 241.378906 314.882812 237.863281 C 313.824219 234.347656 313.296875 230.679688 313.296875 226.863281 C 313.296875 224.078125 313.582031 221.355469 314.148438 218.695312 C 314.71875 216.035156 315.652344 213.535156 316.953125 211.261719 C 318.253906 208.984375 319.972656 207.136719 322.105469 205.773438 C 324.242188 204.414062 326.84375 203.703125 329.851562 203.703125 C 332.878906 203.703125 335.449219 204.394531 337.566406 205.773438 C 339.699219 207.136719 341.40625 208.953125 342.6875 211.230469 C 343.96875 213.503906 344.921875 215.992188 345.492188 218.695312 C 346.0625 221.398438 346.375 224.121094 346.375 226.863281 C 346.375 229.605469 346.082031 232.335938 345.492188 235.058594 C 344.902344 237.78125 343.996094 240.25 342.71875 242.523438 C 341.4375 244.800781 339.71875 246.628906 337.566406 248.011719 C 335.410156 249.390625 332.839844 250.082031 329.851562 250.082031 Z M 298.296875 244.75 L 298.296875 213.117188 L 294.605469 213.117188 C 293.203125 213.117188 292.148438 212.703125 291.4375 211.871094 C 290.722656 211.035156 290.367188 210.019531 290.367188 208.820312 C 290.367188 207.625 290.746094 206.617188 291.496094 205.746094 C 292.25 204.871094 293.304688 204.433594 294.605469 204.433594 L 303.480469 204.433594 C 304.351562 204.433594 305.105469 204.636719 305.734375 205.042969 C 306.363281 205.429688 306.84375 205.957031 307.167969 206.628906 C 307.492188 207.296875 307.65625 208.050781 307.65625 208.945312 L 307.65625 244.75 C 307.65625 246.335938 307.230469 247.554688 306.375 248.40625 C 305.519531 249.257812 304.394531 249.6875 302.992188 249.6875 C 301.609375 249.6875 300.480469 249.25 299.605469 248.375 C 298.734375 247.503906 298.296875 246.292969 298.296875 244.75 Z M 416.226562 307.160156 L 416.226562 275.527344 L 412.535156 275.527344 C 411.132812 275.527344 410.078125 275.109375 409.363281 274.277344 C 408.652344 273.445312 408.296875 272.429688 408.296875 271.230469 C 408.296875 270.03125 408.675781 269.027344 409.425781 268.152344 C 410.179688 267.28125 411.234375 266.84375 412.535156 266.84375 L 421.40625 266.84375 C 422.28125 266.84375 423.035156 267.046875 423.664062 267.453125 C 424.292969 267.839844 424.773438 268.367188 425.097656 269.035156 C 425.421875 269.707031 425.585938 270.457031 425.585938 271.351562 L 425.585938 307.15625 C 425.585938 308.742188 425.15625 309.960938 424.304688 310.816406 C 423.449219 311.667969 422.324219 312.09375 420.921875 312.09375 C 419.539062 312.09375 418.410156 311.65625 417.535156 310.785156 C 416.660156 309.910156 416.226562 308.703125 416.226562 307.15625 Z M 393.113281 307.160156 L 393.113281 275.527344 L 389.425781 275.527344 C 388.023438 275.527344 386.964844 275.109375 386.253906 274.277344 C 385.542969 273.445312 385.1875 272.429688 385.1875 271.230469 C 385.1875 270.03125 385.5625 269.027344 386.316406 268.152344 C 387.066406 267.28125 388.125 266.84375 389.425781 266.84375 L 398.296875 266.84375 C 399.171875 266.84375 399.921875 267.046875 400.554688 267.453125 C 401.183594 267.839844 401.660156 268.367188 401.988281 269.035156 C 402.3125 269.707031 402.472656 270.457031 402.472656 271.351562 L 402.472656 307.15625 C 402.472656 308.742188 402.046875 309.960938 401.195312 310.816406 C 400.339844 311.667969 399.210938 312.09375 397.808594 312.09375 C 396.425781 312.09375 395.300781 311.65625 394.425781 310.785156 C 393.550781 309.910156 393.113281 308.703125 393.113281 307.15625 Z M 365.707031 303.929688 C 367.617188 303.929688 369.078125 303.105469 370.097656 301.460938 C 371.113281 299.8125 371.761719 297.863281 372.046875 295.671875 C 372.332031 293.476562 372.503906 291.34375 372.503906 289.269531 C 372.503906 287.117188 372.351562 284.953125 372.046875 282.78125 C 371.742188 280.605469 371.113281 278.707031 370.097656 277.082031 C 369.078125 275.457031 367.636719 274.644531 365.707031 274.644531 C 363.773438 274.644531 362.300781 275.457031 361.285156 277.082031 C 360.269531 278.707031 359.636719 280.605469 359.332031 282.78125 C 359.027344 284.953125 358.90625 287.117188 358.90625 289.269531 C 358.90625 292.925781 359.355469 296.289062 360.25 299.355469 C 361.140625 302.40625 362.960938 303.929688 365.707031 303.929688 Z M 365.707031 312.492188 C 361.761719 312.492188 358.550781 311.332031 356.070312 309.015625 C 353.589844 306.699219 351.8125 303.785156 350.734375 300.269531 C 349.679688 296.757812 349.148438 293.089844 349.148438 289.269531 C 349.148438 286.488281 349.433594 283.765625 350.003906 281.105469 C 350.574219 278.441406 351.507812 275.945312 352.808594 273.667969 C 354.109375 271.394531 355.828125 269.542969 357.960938 268.183594 C 360.097656 266.820312 362.699219 266.109375 365.707031 266.109375 C 368.734375 266.109375 371.304688 266.800781 373.417969 268.183594 C 375.554688 269.542969 377.261719 271.363281 378.542969 273.636719 C 379.820312 275.914062 380.777344 278.402344 381.347656 281.105469 C 381.914062 283.804688 382.230469 286.527344 382.230469 289.269531 C 382.230469 292.011719 381.9375 294.746094 381.347656 297.46875 C 380.757812 300.191406 379.851562 302.660156 378.570312 304.933594 C 377.292969 307.207031 375.574219 309.039062 373.417969 310.417969 C 371.265625 311.800781 368.695312 312.492188 365.707031 312.492188 Z M 334.148438 307.160156 L 334.148438 275.527344 L 330.460938 275.527344 C 329.058594 275.527344 328 275.109375 327.289062 274.277344 C 326.578125 273.445312 326.222656 272.429688 326.222656 271.230469 C 326.222656 270.03125 326.597656 269.027344 327.351562 268.152344 C 328.101562 267.28125 329.160156 266.84375 330.460938 266.84375 L 339.332031 266.84375 C 340.207031 266.84375 340.960938 267.046875 341.589844 267.453125 C 342.21875 267.839844 342.695312 268.367188 343.023438 269.035156 C 343.347656 269.707031 343.511719 270.457031 343.511719 271.351562 L 343.511719 307.15625 C 343.511719 308.742188 343.082031 309.960938 342.230469 310.816406 C 341.375 311.667969 340.246094 312.09375 338.84375 312.09375 C 337.464844 312.09375 336.335938 311.65625 335.460938 310.785156 C 334.585938 309.910156 334.148438 308.703125 334.148438 307.15625 Z M 306.742188 303.929688 C 308.652344 303.929688 310.113281 303.105469 311.132812 301.460938 C 312.148438 299.8125 312.796875 297.863281 313.082031 295.671875 C 313.367188 293.476562 313.539062 291.34375 313.539062 289.269531 C 313.539062 287.117188 313.386719 284.953125 313.082031 282.78125 C 312.777344 280.605469 312.148438 278.707031 311.132812 277.082031 C 310.113281 275.457031 308.671875 274.644531 306.742188 274.644531 C 304.808594 274.644531 303.335938 275.457031 302.320312 277.082031 C 301.304688 278.707031 300.671875 280.605469 300.367188 282.78125 C 300.0625 284.953125 299.941406 287.117188 299.941406 289.269531 C 299.941406 292.925781 300.390625 296.289062 301.285156 299.355469 C 302.179688 302.40625 303.996094 303.929688 306.742188 303.929688 Z M 306.742188 312.492188 C 302.796875 312.492188 299.585938 311.332031 297.105469 309.015625 C 294.625 306.699219 292.847656 303.785156 291.769531 300.269531 C 290.714844 296.757812 290.1875 293.089844 290.1875 289.269531 C 290.1875 286.488281 290.46875 283.765625 291.039062 281.105469 C 291.609375 278.441406 292.542969 275.945312 293.84375 273.667969 C 295.144531 271.394531 296.863281 269.542969 298.996094 268.183594 C 301.132812 266.820312 303.734375 266.109375 306.742188 266.109375 C 309.769531 266.109375 312.339844 266.800781 314.453125 268.183594 C 316.589844 269.542969 318.296875 271.363281 319.578125 273.636719 C 320.855469 275.914062 321.8125 278.402344 322.382812 281.105469 C 322.949219 283.804688 323.265625 286.527344 323.265625 289.269531 C 323.265625 292.011719 322.972656 294.746094 322.382812 297.46875 C 321.792969 300.191406 320.886719 302.660156 319.605469 304.933594 C 318.328125 307.207031 316.609375 309.039062 314.453125 310.417969 C 312.300781 311.800781 309.730469 312.492188 306.742188 312.492188 Z M 329.851562 366.335938 C 331.761719 366.335938 333.226562 365.515625 334.242188 363.867188 C 335.257812 362.222656 335.90625 360.273438 336.191406 358.078125 C 336.476562 355.882812 336.648438 353.75 336.648438 351.679688 C 336.648438 349.527344 336.496094 347.363281 336.191406 345.1875 C 335.886719 343.015625 335.257812 341.113281 334.242188 339.488281 C 333.226562 337.863281 331.78125 337.050781 329.851562 337.050781 C 327.921875 337.050781 326.445312 337.863281 325.429688 339.488281 C 324.414062 341.113281 323.785156 343.015625 323.480469 345.1875 C 323.175781 347.363281 323.050781 349.527344 323.050781 351.679688 C 323.050781 355.335938 323.5 358.699219 324.394531 361.765625 C 325.289062 364.8125 327.105469 366.335938 329.851562 366.335938 Z M 329.851562 374.898438 C 325.90625 374.898438 322.695312 373.742188 320.21875 371.425781 C 317.738281 369.109375 315.957031 366.195312 314.882812 362.679688 C 313.824219 359.164062 313.296875 355.5 313.296875 351.679688 C 313.296875 348.894531 313.582031 346.171875 314.148438 343.511719 C 314.71875 340.851562 315.652344 338.351562 316.953125 336.078125 C 318.253906 333.800781 319.972656 331.953125 322.105469 330.59375 C 324.242188 329.230469 326.84375 328.519531 329.851562 328.519531 C 332.878906 328.519531 335.449219 329.210938 337.566406 330.59375 C 339.699219 331.953125 341.40625 333.769531 342.6875 336.046875 C 343.96875 338.320312 344.921875 340.808594 345.492188 343.511719 C 346.0625 346.214844 346.375 348.9375 346.375 351.679688 C 346.375 354.421875 346.082031 357.152344 345.492188 359.875 C 344.902344 362.597656 343.996094 365.066406 342.71875 367.34375 C 341.4375 369.617188 339.71875 371.445312 337.566406 372.828125 C 335.410156 374.207031 332.839844 374.898438 329.851562 374.898438 Z M 298.296875 369.566406 L 298.296875 337.9375 L 294.605469 337.9375 C 293.203125 337.9375 292.148438 337.519531 291.4375 336.6875 C 290.722656 335.855469 290.367188 334.835938 290.367188 333.640625 C 290.367188 332.441406 290.746094 331.433594 291.496094 330.5625 C 292.25 329.6875 293.304688 329.25 294.605469 329.25 L 303.480469 329.25 C 304.351562 329.25 305.105469 329.453125 305.734375 329.859375 C 306.363281 330.246094 306.84375 330.773438 307.167969 331.445312 C 307.492188 332.117188 307.65625 332.867188 307.65625 333.761719 L 307.65625 369.566406 C 307.65625 371.152344 307.230469 372.371094 306.375 373.222656 C 305.519531 374.078125 304.394531 374.503906 302.992188 374.503906 C 301.609375 374.503906 300.480469 374.066406 299.605469 373.191406 C 298.734375 372.320312 298.296875 371.109375 298.296875 369.566406 Z M 298.296875 369.566406 " fill-opacity="1" fill-rule="nonzero"/><path stroke-linecap="butt" transform="matrix(3.071946, 2.830193, -2.831634, 3.070382, 565.750056, 382.404553)" fill-opacity="1" fill="#b3b3b3" fill-rule="evenodd" stroke-linejoin="miter" d="M -30.664981 1.596801 L -25.448356 1.59604 L -25.448244 27.935032 L -30.664869 27.935793 Z M -30.664981 1.596801 " stroke="#333333" stroke-width="2.133" stroke-opacity="0" stroke-miterlimit="4"/><path stroke-linecap="round" transform="matrix(-1.24458, -3.986256, 3.988285, -1.243947, 408.032791, 261.578387)" fill-opacity="1" fill="#7f7f7f" fill-rule="evenodd" stroke-linejoin="round" d="M -11.656209 8.343569 C -17.029194 8.343667 -21.375181 12.68971 -21.375256 18.062846 C -21.375199 22.148071 -18.85131 25.619314 -15.281031 27.062541 L -15.280896 17.000887 L -7.749969 17.000347 L -7.74954 26.96913 C -4.312506 25.466763 -1.906385 22.052095 -1.906055 18.062975 C -1.90598 12.689839 -6.28261 8.344643 -11.656488 8.344462 Z M -11.656209 8.343569 " stroke="#333333" stroke-width="2.133" stroke-opacity="0" stroke-miterlimit="4"/><path stroke-linecap="round" transform="matrix(1.24458, 3.986256, -3.988285, 1.243947, 469.169356, 431.721217)" fill-opacity="1" fill="#7f7f7f" fill-rule="evenodd" stroke-linejoin="round" d="M -11.65587 8.34343 C -17.028855 8.343527 -21.374842 12.689571 -21.374917 18.062707 C -21.37486 22.147932 -18.850972 25.619175 -15.280692 27.062402 L -15.280558 17.000748 L -7.74963 17.000207 L -7.74948 26.969883 C -4.313061 25.466345 -1.906046 22.051955 -1.905716 18.062835 C -1.905919 12.690592 -6.283164 8.344224 -11.656149 8.344322 Z M -11.65587 8.34343 " stroke="#333333" stroke-width="2.133" stroke-opacity="0" stroke-miterlimit="4"/></svg>
